<svg xmlns="http://www.w3.org/2000/svg" viewBox="0 0 239.67 277.69"><defs><style>path,rect,polygon{fill:#FFF}.cls-1{fill:none;stroke:#FFF;stroke-linecap:round;stroke-miterlimit:10;stroke-width:16px;}.cls-2,.cls-3{fill:#f15a2a;}.cls-3{font-size:13.21px;font-family:SFProText-Heavy, SFProText Heavy;}</style></defs><title>Kir-devlogo</title><g id="Réteg_2" data-name="Réteg 2"><g id="Layer_1" data-name="Layer 1"><path class="cls-1" d="M96.67,96.67A88.67,88.67,0,0,0,8,185.34"/><path d="M119.84,193.34a8,8,0,0,1-8-8V8a8,8,0,0,1,16,0V185.34A8,8,0,0,1,119.84,193.34Z"/><path class="cls-2" d="M96.67,104.67A96.78,96.78,0,0,1,0,8,8,8,0,0,1,16,8,80.76,80.76,0,0,0,96.67,88.67a8,8,0,0,1,0,16Z"/><path d="M187.34,0H143a8,8,0,0,0,0,16h44.34a36.33,36.33,0,0,1,0,72.67H143a8,8,0,1,0,0,16h44.34a52.49,52.49,0,0,0,52.33-52.33h0A52.49,52.49,0,0,0,187.34,0Z"/><polygon points="46.6 221.49 37.01 221.49 27.09 233.37 27.09 206.12 18.92 206.12 18.92 252.5 27.09 252.5 27.09 240.11 37.8 252.5 48.16 252.5 34.02 236.8 46.6 221.49"/><path d="M55.5,207.15a4.5,4.5,0,0,0-3.22,1.34,4.37,4.37,0,0,0-1.39,3.27A4.5,4.5,0,0,0,52.26,215a4.46,4.46,0,0,0,6.51,0,4.56,4.56,0,0,0,1.34-3.24,4.65,4.65,0,0,0-4.62-4.62Z"/><rect x="51.42" y="221.49" width="8.17" height="31.01"/><path d="M85.75,220.89a7.29,7.29,0,0,0-4.95,2,21.55,21.55,0,0,0-4.48,6.49h-.13v-7.9H68v31h8.17V238.36a10.69,10.69,0,0,1,1.11-4.65,10.1,10.1,0,0,1,3-3.74A6.11,6.11,0,0,1,84,228.56q2.16,0,5.71,2.66l2.92-7.14A17.9,17.9,0,0,0,89,221.62,7.57,7.57,0,0,0,85.75,220.89Z"/><rect x="94.94" y="233.18" width="17.2" height="7.84"/><path d="M141.13,222.19a21,21,0,0,0-6.94-1.29,15.77,15.77,0,0,0-7.85,2,14.92,14.92,0,0,0-5.71,5.63,15.62,15.62,0,0,0-2.08,8q0,7.4,4.47,11.69t11.9,4.28h14.34V206.12h-8.13Zm0,24.07h-4.28q-9.93,0-9.93-10a9.31,9.31,0,0,1,2.44-6.71,8.6,8.6,0,0,1,6.52-2.56,11.35,11.35,0,0,1,5.25,1.29Z"/><path d="M171.31,220.89a14.83,14.83,0,0,0-11.21,4.48,16,16,0,0,0-4.3,11.55q0,7.34,4.65,11.75a16.69,16.69,0,0,0,12,4.42,22.29,22.29,0,0,0,13.21-3.85v-6.08a24.58,24.58,0,0,1-5.59,3.07,15.92,15.92,0,0,1-5.63,1,10.62,10.62,0,0,1-7.16-2.24,9.56,9.56,0,0,1-3.1-6.39h21.95V237.4q0-7.74-4-12.12T171.31,220.89Zm-7,12.78a9,9,0,0,1,2.37-5.38,6.81,6.81,0,0,1,5-1.83,6.08,6.08,0,0,1,4.75,1.91,9,9,0,0,1,2.06,5.3Z"/><polygon points="212.05 221.49 204.78 239.46 197.34 221.49 188.58 221.49 202.79 253.1 206.74 253.1 220.75 221.49 212.05 221.49"/><path class="cls-2" d="M169.44,266.39a3.17,3.17,0,0,1,2.47,1,4,4,0,0,1,.91,2.77v.28h-5a2.18,2.18,0,0,0,.71,1.46,2.43,2.43,0,0,0,1.63.51,3.64,3.64,0,0,0,1.28-.23,5.61,5.61,0,0,0,1.28-.7v1.39a5.09,5.09,0,0,1-3,.88,3.81,3.81,0,0,1-2.74-1,3.53,3.53,0,0,1-1.06-2.68,3.66,3.66,0,0,1,1-2.64A3.39,3.39,0,0,1,169.44,266.39Zm1.63,2.92a2.05,2.05,0,0,0-.47-1.21,1.39,1.39,0,0,0-1.08-.44,1.56,1.56,0,0,0-1.13.42,2.06,2.06,0,0,0-.54,1.23Z"/><path class="cls-2" d="M114.63,266.53v-3.9h2v11.26h-3.48a4,4,0,0,1-2.89-1,3.74,3.74,0,0,1-1.08-2.84,3.79,3.79,0,0,1,.5-1.93,3.62,3.62,0,0,1,1.39-1.37,3.83,3.83,0,0,1,1.91-.5A5.11,5.11,0,0,1,114.63,266.53Zm-1,5.84h1V268a2.76,2.76,0,0,0-1.27-.31,2.09,2.09,0,0,0-1.58.62,2.26,2.26,0,0,0-.59,1.63A2.14,2.14,0,0,0,113.59,272.38Z"/><path class="cls-2" d="M122,266.22a3.37,3.37,0,0,1,2.63,1.06,4.21,4.21,0,0,1,1,2.94v.3h-5.33a2.32,2.32,0,0,0,.75,1.55,2.58,2.58,0,0,0,1.74.54,3.87,3.87,0,0,0,1.37-.25,6,6,0,0,0,1.36-.75v1.48a5.41,5.41,0,0,1-3.21.94,4.05,4.05,0,0,1-2.91-1.07,3.75,3.75,0,0,1-1.13-2.85,3.89,3.89,0,0,1,1-2.81A3.6,3.6,0,0,1,122,266.22Zm1.73,3.1a2.18,2.18,0,0,0-.5-1.29,1.48,1.48,0,0,0-1.15-.46,1.66,1.66,0,0,0-1.21.44,2.19,2.19,0,0,0-.58,1.31Z"/><path class="cls-2" d="M128.27,266.36l1.81,4.36,1.77-4.36H134l-3.4,7.67h-1l-3.45-7.67Z"/><path class="cls-2" d="M138.35,266.22a3.37,3.37,0,0,1,2.63,1.06,4.21,4.21,0,0,1,1,2.94v.3h-5.33a2.32,2.32,0,0,0,.75,1.55,2.58,2.58,0,0,0,1.74.54,3.87,3.87,0,0,0,1.37-.25,6,6,0,0,0,1.36-.75v1.48a5.41,5.41,0,0,1-3.21.94,4.05,4.05,0,0,1-2.91-1.07,3.75,3.75,0,0,1-1.13-2.85,3.89,3.89,0,0,1,1-2.81A3.6,3.6,0,0,1,138.35,266.22Zm1.73,3.1a2.18,2.18,0,0,0-.5-1.29,1.48,1.48,0,0,0-1.15-.46,1.66,1.66,0,0,0-1.21.44,2.19,2.19,0,0,0-.58,1.31Z"/><path class="cls-2" d="M145.55,262.63v11.26h-2V262.63Z"/><path class="cls-2" d="M151.33,266.22a4.61,4.61,0,0,1,2.14.49,3.57,3.57,0,0,1,1.48,1.38,3.87,3.87,0,0,1,.52,2,4,4,0,0,1-.5,2,3.52,3.52,0,0,1-1.48,1.39,4.6,4.6,0,0,1-2.16.51,4.55,4.55,0,0,1-2.15-.51,3.54,3.54,0,0,1-1.47-1.39,4,4,0,0,1-.5-2,3.83,3.83,0,0,1,.53-2,3.62,3.62,0,0,1,1.48-1.37A4.56,4.56,0,0,1,151.33,266.22Zm-2,3.88a2.75,2.75,0,0,0,.55,1.8,1.82,1.82,0,0,0,1.48.67,1.91,1.91,0,0,0,1.52-.64,2.74,2.74,0,0,0,.56-1.85,2.56,2.56,0,0,0-.56-1.77,1.94,1.94,0,0,0-1.52-.62,1.84,1.84,0,0,0-1.47.66A2.6,2.6,0,0,0,149.28,270.1Z"/><path class="cls-2" d="M160.94,266.22a3.36,3.36,0,0,1,2.6,1.08,4,4,0,0,1,1,2.81,4.35,4.35,0,0,1-.46,2,3.38,3.38,0,0,1-1.32,1.39,3.76,3.76,0,0,1-1.93.5,3.92,3.92,0,0,1-1.77-.44v4.1h-2V266.36h2v.48A3.26,3.26,0,0,1,160.94,266.22ZM159,272.14a2.8,2.8,0,0,0,1.39.43,1.86,1.86,0,0,0,1.5-.67,2.58,2.58,0,0,0,.56-1.73,2.89,2.89,0,0,0-.5-1.81,1.7,1.7,0,0,0-1.43-.65,2,2,0,0,0-.67.12,3.8,3.8,0,0,0-.85.5Z"/><path class="cls-2" d="M178.93,266.22a1.83,1.83,0,0,1,.78.18,4.32,4.32,0,0,1,.89.6l-.71,1.73a2.61,2.61,0,0,0-1.39-.64,1.48,1.48,0,0,0-.91.34,2.45,2.45,0,0,0-.72.91,2.59,2.59,0,0,0-.27,1.13v3.43h-2v-7.53h2v1.92h0a5.23,5.23,0,0,1,1.09-1.58A1.77,1.77,0,0,1,178.93,266.22Z"/><path class="cls-2" d="M188.18,264.36h.16v2h2.58v1.5h-2.58v3.47a1.07,1.07,0,0,0,1.14,1.14,3.39,3.39,0,0,0,1.6-.5v1.59a5,5,0,0,1-2,.48,2.73,2.73,0,0,1-2-.69,2.5,2.5,0,0,1-.71-1.88v-3.6h-1.18v-.32Z"/><path class="cls-2" d="M195.58,266.22a3.37,3.37,0,0,1,2.63,1.06,4.21,4.21,0,0,1,1,2.94v.3h-5.33a2.32,2.32,0,0,0,.75,1.55,2.58,2.58,0,0,0,1.74.54,3.87,3.87,0,0,0,1.37-.25,6,6,0,0,0,1.36-.75v1.48a5.41,5.41,0,0,1-3.21.94,4.05,4.05,0,0,1-2.91-1.07,3.75,3.75,0,0,1-1.13-2.85,3.89,3.89,0,0,1,1-2.81A3.6,3.6,0,0,1,195.58,266.22Zm1.73,3.1a2.19,2.19,0,0,0-.5-1.29,1.48,1.48,0,0,0-1.15-.46,1.66,1.66,0,0,0-1.2.44,2.19,2.19,0,0,0-.58,1.31Z"/><path class="cls-2" d="M203.44,266.22a3.46,3.46,0,0,1,2.22.62,2.08,2.08,0,0,1,.77,1.72v3.68q0,.43.35.43a1,1,0,0,0,.41-.12,1.82,1.82,0,0,0,.44-.29v1.14a3.71,3.71,0,0,1-1.9.64,1.56,1.56,0,0,1-.82-.18,1,1,0,0,1-.4-.63,3.92,3.92,0,0,1-2.28.81,2,2,0,0,1-1.4-.55,1.74,1.74,0,0,1-.58-1.31,2,2,0,0,1,.58-1.54,4.93,4.93,0,0,1,2-1l1.6-.47v-.35q0-1.11-1.34-1.1a3.22,3.22,0,0,0-1.36.31,3.87,3.87,0,0,0-1.23.93v-1.78A4.58,4.58,0,0,1,203.44,266.22Zm-1.21,5.66a.87.87,0,0,0,.26.66.9.9,0,0,0,.65.25,2,2,0,0,0,1.31-.6v-2a9.24,9.24,0,0,0-1.3.53,2.38,2.38,0,0,0-.69.51A.93.93,0,0,0,202.23,271.88Z"/><path class="cls-2" d="M213.06,266.22a2.56,2.56,0,0,1,1.47.41,2.49,2.49,0,0,1,.9,1.09,4.67,4.67,0,0,1,1.27-1.14,2.77,2.77,0,0,1,1.39-.36A2.52,2.52,0,0,1,220,267a2.9,2.9,0,0,1,.73,2.08v4.82h-2V269.4a2,2,0,0,0-.33-1.23,1.13,1.13,0,0,0-1-.45,2.28,2.28,0,0,0-1.75,1.17v5h-2v-4.52a1.88,1.88,0,0,0-.35-1.21,1.16,1.16,0,0,0-1-.44,1.52,1.52,0,0,0-.89.28,4,4,0,0,0-.86.89v5h-2v-7.53h2v1.06a4,4,0,0,1,1.1-.91A2.7,2.7,0,0,1,213.06,266.22Z"/><path class="cls-2" d="M231.67,193.34a8,8,0,0,1-8-8A80.76,80.76,0,0,0,143,104.67a8,8,0,0,1,0-16,96.78,96.78,0,0,1,96.67,96.67A8,8,0,0,1,231.67,193.34Z"/><path class="cls-2" d="M101.82,265.68a3.37,3.37,0,0,1,2.63,1.06,4.21,4.21,0,0,1,1,2.94v.3h-5.33a2.32,2.32,0,0,0,.75,1.55,2.58,2.58,0,0,0,1.74.54,3.87,3.87,0,0,0,1.37-.25,6,6,0,0,0,1.36-.75v1.48a5.41,5.41,0,0,1-3.21.94,4.05,4.05,0,0,1-2.91-1.07,3.75,3.75,0,0,1-1.13-2.85,3.89,3.89,0,0,1,1-2.81A3.6,3.6,0,0,1,101.82,265.68Zm1.73,3.1a2.18,2.18,0,0,0-.5-1.29,1.48,1.48,0,0,0-1.15-.46,1.66,1.66,0,0,0-1.21.44,2.19,2.19,0,0,0-.58,1.31Z"/><text class="cls-3" transform="translate(48.59 273.39)">&amp;</text></g><g id="Réteg_2-2" data-name="Réteg 2"><path class="cls-2" d="M20.9,266.64l1.55,3.84L24,266.64h1.14l1.56,3.84,1.55-3.84H30.1l-3,6.79H26.4l-1.8-4.07-1.8,4.07h-.73l-3-6.79Z"/><path class="cls-2" d="M40.27,263.34v3.73a3,3,0,0,1,1.76-.56,3,3,0,0,1,1.59.43,2.92,2.92,0,0,1,1.11,1.21,3.8,3.8,0,0,1,.4,1.74,3.43,3.43,0,0,1-1,2.59,3.68,3.68,0,0,1-2.67.95,8.07,8.07,0,0,1-3-.56v-9.53Zm0,8.57a4.08,4.08,0,0,0,1.31.19,1.56,1.56,0,0,0,1.28-.59,2.53,2.53,0,0,0,.47-1.63,2.24,2.24,0,0,0-.48-1.5,1.58,1.58,0,0,0-1.26-.56,1.65,1.65,0,0,0-.67.14,3,3,0,0,0-.66.42Z"/><path class="cls-2" d="M34,266.35a3.17,3.17,0,0,1,2.47,1,4,4,0,0,1,.91,2.77v.28h-5a2.18,2.18,0,0,0,.71,1.46,2.43,2.43,0,0,0,1.63.51,3.64,3.64,0,0,0,1.29-.23,5.62,5.62,0,0,0,1.28-.7v1.39a5.09,5.09,0,0,1-3,.88,3.81,3.81,0,0,1-2.74-1A3.53,3.53,0,0,1,30.46,270a3.66,3.66,0,0,1,1-2.64A3.39,3.39,0,0,1,34,266.35Zm1.63,2.92a2.06,2.06,0,0,0-.47-1.21,1.39,1.39,0,0,0-1.08-.44,1.56,1.56,0,0,0-1.13.42,2.06,2.06,0,0,0-.54,1.23Z"/><path class="cls-2" d="M67.71,266.05a2.41,2.41,0,0,1,1.38.38,2.34,2.34,0,0,1,.85,1,4.39,4.39,0,0,1,1.19-1.07,2.61,2.61,0,0,1,1.31-.34,2.37,2.37,0,0,1,1.81.73,2.73,2.73,0,0,1,.69,2v4.54H73.08V269a1.91,1.91,0,0,0-.31-1.16,1.07,1.07,0,0,0-.91-.42,2.14,2.14,0,0,0-1.65,1.1v4.71H68.35V269a1.77,1.77,0,0,0-.33-1.14,1.09,1.09,0,0,0-.9-.41,1.43,1.43,0,0,0-.83.26,3.73,3.73,0,0,0-.81.84v4.71H63.61v-7.08h1.87v1a3.72,3.72,0,0,1,1-.85A2.54,2.54,0,0,1,67.71,266.05Z"/><path class="cls-2" d="M79.51,266a4.34,4.34,0,0,1,2,.46,3.36,3.36,0,0,1,1.4,1.3,3.64,3.64,0,0,1,.49,1.89,3.8,3.8,0,0,1-.47,1.93,3.32,3.32,0,0,1-1.4,1.3,4.33,4.33,0,0,1-2,.48,4.28,4.28,0,0,1-2-.48,3.33,3.33,0,0,1-1.38-1.3,3.8,3.8,0,0,1-.47-1.93,3.61,3.61,0,0,1,.5-1.9,3.41,3.41,0,0,1,1.4-1.29A4.29,4.29,0,0,1,79.51,266Zm-1.93,3.65a2.59,2.59,0,0,0,.52,1.7,1.71,1.71,0,0,0,1.39.63,1.79,1.79,0,0,0,1.43-.61,2.58,2.58,0,0,0,.52-1.74,2.41,2.41,0,0,0-.53-1.66,1.82,1.82,0,0,0-1.43-.59,1.73,1.73,0,0,0-1.38.62A2.45,2.45,0,0,0,77.58,269.61Z"/><path class="cls-2" d="M85.77,263.19v3.73a3,3,0,0,1,1.76-.56,3,3,0,0,1,1.59.43A2.92,2.92,0,0,1,90.24,268a3.8,3.8,0,0,1,.4,1.74,3.43,3.43,0,0,1-1,2.59,3.68,3.68,0,0,1-2.67.95,8.07,8.07,0,0,1-3-.56v-9.53Zm0,8.57a4.08,4.08,0,0,0,1.31.19,1.56,1.56,0,0,0,1.28-.59,2.53,2.53,0,0,0,.47-1.63,2.24,2.24,0,0,0-.48-1.5,1.58,1.58,0,0,0-1.26-.56,1.65,1.65,0,0,0-.67.14,3,3,0,0,0-.66.42Z"/><path class="cls-2" d="M92.47,263a1,1,0,0,0-.69.29.94.94,0,0,0-.3.7,1,1,0,0,0,.3.69,1,1,0,0,0,1.39,0,1,1,0,0,0,.29-.69,1,1,0,0,0-1-1Z"/><rect class="cls-2" x="91.61" y="266.54" width="1.75" height="6.65"/><path class="cls-2" d="M97,262.61v10.6H95.12v-10.6Z"/></g></g></svg>