<?xml version="1.0" encoding="iso-8859-1"?>
<svg xmlns="http://www.w3.org/2000/svg" xmlns:xlink="http://www.w3.org/1999/xlink" version="1.1" viewBox="0 0 470 470" enable-background="new 0 0 470 470" width="512px" height="512px">
  <g>
    <path d="m375.303,160.673h-31.311v-2.5c0-4.142-3.357-7.5-7.5-7.5s-7.5,3.358-7.5,7.5v168.937c0,4.142 3.357,7.5 7.5,7.5s7.5-3.358 7.5-7.5v-2.5h31.311c19.16,0 34.748-15.588 34.748-34.748v-94.441c0-19.16-15.588-34.748-34.748-34.748zm19.748,129.189c0,10.889-8.859,19.748-19.748,19.748h-31.311v-133.937h31.311c10.889,0 19.748,8.859 19.748,19.748v94.441z" fill="#FFFFFF"/>
    <path d="m375.303,120.673h-31.311v-33.538c0-4.142-3.357-7.5-7.5-7.5h-3.53c-3.696-28.793-28.344-51.123-58.126-51.123-5.282,0-10.486,0.702-15.534,2.091-16.593-19.516-40.469-30.603-66.309-30.603s-49.716,11.087-66.311,30.604c-5.047-1.389-10.252-2.091-15.534-2.091-29.782,0-54.43,22.329-58.126,51.123h-3.529c-4.142,0-7.5,3.358-7.5,7.5v306.104c-13.375,6.888-22.044,20.802-22.044,36.131 0,22.403 18.226,40.629 40.629,40.629h264.829c22.403,0 40.63-18.226 40.63-40.629 0-15.329-8.669-29.243-22.044-36.131v-28.63h31.311c41.216,0 74.748-33.532 74.748-74.748v-94.441c-0.001-41.216-33.533-74.748-74.749-74.748zm-264.155-77.16c5.318-7.10543e-15 10.527,0.955 15.484,2.838 3.122,1.186 6.653,0.165 8.659-2.505 13.777-18.332 34.809-28.846 57.702-28.846s43.925,10.514 57.702,28.845c2.006,2.67 5.535,3.692 8.658,2.505 4.957-1.883 10.167-2.838 15.484-2.838 21.495,0 39.396,15.632 42.964,36.123h-249.617c3.568-20.49 21.469-36.122 42.964-36.122zm323.903,246.349c-5.68434e-14,32.945-26.803,59.748-59.748,59.748h-38.811c-4.143,0-7.5,3.358-7.5,7.5v41.038c0,3.175 1.999,6.005 4.99,7.068 10.2,3.622 17.054,13.329 17.054,24.155 0,14.132-11.497,25.629-25.63,25.629h-264.828c-14.132,0-25.629-11.498-25.629-25.629 0-10.826 6.853-20.533 17.054-24.155 2.992-1.063 4.99-3.893 4.99-7.068v-303.513h272v33.538c0,4.142 3.357,7.5 7.5,7.5h38.811c32.945,0 59.748,26.803 59.748,59.748v94.441z" fill="#FFFFFF"/>
    <path d="m216.493,390.648h-107c-12.407,0-22.5-10.093-22.5-22.5v-109.975c0-4.142-3.358-7.5-7.5-7.5s-7.5,3.358-7.5,7.5v109.975c0,20.678 16.822,37.5 37.5,37.5h107c4.142,0 7.5-3.358 7.5-7.5s-3.358-7.5-7.5-7.5z" fill="#FFFFFF"/>
    <circle cx="268.993" cy="287.187" r="7.5" fill="#FFFFFF"/>
    <circle cx="268.993" cy="317.187" r="7.5" fill="#FFFFFF"/>
    <path d="m306.493,109.635c-4.143,0-7.5,3.358-7.5,7.5v73.538h-212v-73.538c0-4.142-3.358-7.5-7.5-7.5s-7.5,3.358-7.5,7.5v111.038c0,4.142 3.358,7.5 7.5,7.5s7.5-3.358 7.5-7.5v-22.5h212v162.475c0,12.407-10.094,22.5-22.5,22.5h-30c-4.142,0-7.5,3.358-7.5,7.5s3.358,7.5 7.5,7.5h30c20.678,0 37.5-16.822 37.5-37.5v-251.013c0-4.142-3.358-7.5-7.5-7.5z" fill="#FFFFFF"/>
  </g>
</svg>
