<?xml version="1.0" encoding="iso-8859-1"?>
<!-- Generator: Adobe Illustrator 19.0.0, SVG Export Plug-In . SVG Version: 6.00 Build 0)  -->
<svg xmlns="http://www.w3.org/2000/svg" xmlns:xlink="http://www.w3.org/1999/xlink" version="1.1" id="Capa_1" x="0px" y="0px" viewBox="0 0 120 120" style="enable-background:new 0 0 120 120;" xml:space="preserve" width="512px" height="512px">
<g id="_x30_304-taco">
	<g>
		<path style="fill-rule:evenodd;clip-rule:evenodd;" d="M119.96,66.956c0.241-4.256-0.649-7.381-1.89-10.153    c-0.025-1.392-0.477-2.357-0.708-3.543c-1.653-2.441-3.427-4.76-5.196-7.085c-2.341-4.978-5.027-9.612-8.737-13.224    c-3.847-3.552-8.288-6.51-14.877-7.32c-1.002,0.179-1.856,0.506-2.598,0.944c-0.599-1.289-2.169-1.608-4.251-1.416    c0.014-0.88-0.238-1.494-0.472-2.126c0.048-0.993-0.897-0.991-0.945-1.889c-0.878-0.381-1.75-0.768-2.833-0.944    c-2.021,0.024-3.365,0.729-4.959,1.181c-0.023-1.395-0.796-2.037-1.417-2.834c-0.627-0.16-1.202-0.372-1.652-0.709    c-3.188-0.195-5.086,0.896-6.612,2.362c-0.767-1.044-1.729-1.892-2.833-2.599c-1.045-0.058-1.721-0.483-2.834-0.472    c-0.446-0.053-0.521,0.267-0.944,0.236c-1.924-0.035-2.892,0.886-4.25,1.417c-2.194,2.056-3.712,4.789-4.014,8.736    c-0.191,3.891,0.37,7.03,1.181,9.918c0.522,0.737,0.978,1.542,1.653,2.126c-1.358,0.216-2.227,0.921-3.069,1.652    c-0.025,0.606-0.134,1.126-0.473,1.417c-0.181,4.038,0.792,6.923,3.779,7.793c0.892,0.106,1.108-0.466,1.653-0.708    c0.526-0.737,1.09,0.464,1.652,0.472c-0.849,1.04-2.267,1.512-3.542,2.126c-1.143,0.745-2.189,1.589-3.542,2.125    c-0.991,0.897-2.247,1.53-3.306,2.362c-1.128,0.761-2.065,1.713-3.306,2.36c-0.571-0.265-0.83-0.927-1.181-1.181    c-0.102-0.073-0.355,0.053-0.472,0c-0.082-0.037-0.139-0.416-0.236-0.472c-0.483-0.28-0.901-0.343-1.417-0.473    c-0.767-0.191-1.694-0.61-2.598-0.707c-4.629-0.499-8.643,0.877-10.626,2.597c-0.51,0.592-0.745,1.46-1.417,1.89    c-0.024,0.604-0.134,1.125-0.472,1.417c0.041,2.241-0.148,4.713,0.236,6.611c-1.29-0.362-3.097-0.208-4.723-0.235    c-3.77,0.873-6.131,3.156-6.848,7.084v2.598c0.222,1.824,0.707,3.387,1.181,4.959c0.749,0.273,0.582,1.465,1.417,1.652    c0.285,0.818,1.235,0.97,1.889,1.418c1.35-0.305,2.722-0.584,2.834-2.126c0.139-2.028-2.105-1.673-2.362-3.306    c0.622-0.402,2.023-0.024,2.598-0.473c1.196-0.173,1.733,0.313,2.361,0.709c-0.522,1.13-1.067,2.238-1.889,3.069    c-0.455,1.277-1.069,2.395-1.889,3.306c-0.973,2.491-2.557,4.37-3.306,7.084c-1.363,1.235-2.786,2.41-5.668,2.126    c-1.294-0.831-1.947-2.304-2.597-3.778c0.121-2.554-0.406-5.758,0.708-7.32c0.94,0.418,2,1.37,3.306,0.709    c0.21-0.499,0.719-0.699,0.709-1.418c0.043-1.539-1.183-1.808-1.889-2.597c-0.575-0.999-1.411-1.738-1.889-2.835    c-0.742-0.832-1.032-2.115-1.653-3.068c-0.147-1.178-1.179-2.51-0.709-3.543c1.008,0.664,2.678,0.958,3.543,0    c-0.053-0.446,0.266-0.521,0.236-0.944c0.319-2.052-1.843-1.62-2.361-2.834c-0.215-1.28-0.556-2.436-0.709-3.778v-4.486    c-0.021-1.594,0.22-2.928,1.889-2.834c1.491,0.084,0.829,2.32,1.889,2.834c0.477,1.098,1.06,2.09,2.834,1.89    c0.097-0.297,0.304-0.483,0.708-0.473c0.728-1.683-0.266-3.235-0.708-4.486c-0.33-5.839,0.834-10.187,3.07-13.461    c0.992-0.896,1.971-1.808,3.778-1.89c2.184,0.965,3.22,3.078,4.015,5.433c1.297,1.852,0.586,5.71,3.778,5.667    c1.335-0.711,1.249-2.844,1.417-4.723c0.616-1.037,0.843-2.464,1.653-3.307c0.445-1.286,1.667-1.797,3.069-2.125    c1.78,1.211,0.849,5.134,2.598,6.376c0.812,0.103,1.324-0.093,1.889-0.236c0.84-1.102,0.114-2.37,0.236-4.015    c0.679-0.815,0.947-2.043,2.597-1.889c1.241,0.284,1.908,1.963,2.125,2.834c0.321,1.283,0.671,3.149,0.472,4.959    c-0.492,1.084-0.739,2.809,0.236,3.541c0.278,0.037,0.671-0.04,0.709,0.236c1.458,0.041,1.642-1.192,2.598-1.652    c0.552-2.105,0.518-5.422,0-7.321c-0.182-0.665-0.262-1.097-0.473-1.652c-0.443-1.167-1.077-2.145-1.653-2.833    c-0.609-0.729-0.858-0.834-1.417-1.182c-0.947-0.589-2.295-0.922-4.014-0.708c-0.304,0.482-1.325,0.249-1.417,0.944    c-0.776,0.011-0.565,1.009-1.417,0.945c-0.75-0.51-1.244-1.275-2.361-1.418h-2.125c-0.997,0.263-1.668,0.852-2.597,1.181    c-0.327,0.697-1.09,0.956-1.417,1.653c-0.527,0.496-0.576,1.471-1.417,1.653c-0.781-1.817-1.929-3.266-3.069-4.723    c-0.591,0.04-0.739-0.363-0.945-0.709c-0.658-0.208-1.437-0.294-1.889-0.708h-3.306c-0.291,0.338-0.812,0.447-1.416,0.473    c-0.625,0.555-1.343,1.018-2.125,1.416c-1.371,1.777-2.881,3.416-3.542,5.904c-0.706,0.868-0.548,2.599-1.18,3.541    c-0.211,1.443-0.093,3.213-0.472,4.487c-1.854-0.2-2.825,0.481-4.015,0.944c-0.659,0.776-1.125,1.501-1.417,2.362    c-0.093,0.274-0.469,0.925-0.472,0.944c-0.553,2.918,0.237,7.058,0.472,9.681C1.201,68.865,0.434,69.28,0,70.026v3.307    c0.601,1.604,0.677,3.73,1.653,4.959c0.334,1.87,1.523,2.886,2.125,4.486c-1.16,0.021-1.326,1.036-1.889,1.652    c-0.592,2.086-0.978,4.375-1.181,6.849c0.399,4.01,1.782,7.034,4.015,9.21c1.613,0.748,3.598,1.125,4.959,2.125    c6.865,0.484,14.775,0.408,20.308-1.181c1.028-0.703,2.19-1.273,3.306-1.89c14.341-4.472,28.621-9.004,42.977-13.459    c1.994-0.368,3.572-1.151,5.668-1.418c0.622-0.559,1.88-0.48,2.361-1.18c1.122-0.059,1.451-0.91,2.598-0.945    c1.639-0.722,3.654-1.068,5.195-1.889c1.216,0.035,1.729-0.633,2.834-0.709c0.783-0.397,1.979-0.381,2.597-0.944    c3.873-0.851,7.263-2.182,11.099-3.069c0.719-0.462,1.858-0.503,2.597-0.945c0.804-0.376,1.92-0.441,2.598-0.944    c1.794-0.567,4.134-0.589,5.431-1.652c0.033-0.44,0.156-0.79,0.473-0.944c0.163-1.188-0.141-1.906-0.473-2.599    C119.552,68.28,120.114,67.975,119.96,66.956z M17.947,77.819c-0.778,0.324-1.888,0.316-2.833,0.473    c-0.268-2.314,0.316-3.777,1.417-4.724c0.274-0.037,0.42,0.053,0.472,0.236c0.258,0.686,0.221,1.668,0.708,2.126    C17.429,76.949,18.484,77.254,17.947,77.819z M86.9,29.409h1.416c2.153,0.288,3.724,1.157,5.432,1.889    c1.704,0.658,2.865,1.857,4.487,2.599c2.783,3.041,5.908,5.741,7.557,9.918c-2.624-0.762-4.548-2.223-6.612-3.543    c-3.373-0.146-6.266,0.188-9.446,0.236v-3.07c-0.369-0.732-0.7-1.502-1.181-2.125c-0.509-0.593-1.459-0.744-1.889-1.416    C86.813,32.472,86.999,31.082,86.9,29.409z M50.77,44.759c0.003-0.628-0.089-1.349,0.236-1.653    c0.658,0.208,0.783,0.949,0.944,1.653H50.77z M52.66,46.175c-0.123-0.122,0.17-0.3,0.236-0.235    C53.018,46.062,52.725,46.24,52.66,46.175z M52.896,37.911c-1.833-2.104-2.129-5.743-2.126-9.683    c0.266-2.724,1.523-4.46,2.834-6.14c1.016-0.479,1.947-1.044,3.306-1.181c0.819-0.189,0.908,0.352,1.653,0.236    c0.924,0.886,1.729,1.893,2.125,3.306c0.277,1.456,0.443,3.021,2.362,2.835c1.04,0.174,0.968-0.766,1.653-0.946    c0.024-0.968,0.047-1.935-0.235-2.597c-0.201-0.494,0.411-0.617,0.708-0.945c0.695-0.769,1.492-1.649,3.542-1.416    c0.136,0.493,0.586,0.674,0.473,1.416c-0.141,0.489,0.291,1.553-0.237,1.653c-0.347,0.834-0.614,1.747-0.472,3.069    c0.172,0.537,0.71,0.707,1.181,0.945c2.411,0.207,2.585-1.823,3.306-3.306c1.125-0.646,3.116-1.553,4.723-0.944    c0.396,0.391,0.188,1.385,0.236,2.124c-0.134,1.912-2.073,2.021-1.889,4.251c-0.111,0.742,0.636,0.624,0.708,1.181    c1.722,0.226,2.463-0.529,3.307-1.181c0.684-0.811,0.969-2.021,2.361-2.125c0.99-0.281,0.421,0.995,0.944,1.181v2.125    c-0.512-0.039-0.107,0.838-0.236,1.181c-0.49,1.006-1.792,1.199-1.889,2.598c0.071,2.064,1.854,1.968,3.778,1.652    c0.213,0.418,0.528,0.731,0.944,0.945c0.092,1.903-0.357,3.264-2.361,3.069c-0.953,0.009-0.208-1.681-0.945-1.889    c-0.181-0.684-0.373-1.357-0.944-1.653c-0.449-1.361-1.63-1.99-2.361-3.069c-0.82-0.204-1.31-0.736-1.889-1.181    c-0.787-0.236-1.623-0.424-2.361-0.709c-8.374-0.581-13.737,1.85-15.586,7.793c-0.726-0.375-0.355-1.849-1.181-2.125    c-0.071-0.952-0.891-1.156-1.417-1.652c-0.912-0.047-1.74-0.01-2.361,0.236C53.792,37.074,53.716,37.865,52.896,37.911z     M59.508,43.578c0.877,0.146,1.08,0.967,2.361,0.708c0.884-0.533,0.861-1.973,1.181-3.07c0.549-1.024,1.453-1.695,2.126-2.597    c2.431-1.111,5.227-1.857,8.973-1.652c0.073,0.319,0.591,0.195,0.944,0.234c1.712,1.201,3.483,2.342,3.778,4.959    c-3.807,0.365-6.74,1.604-10.154,2.362c-1.504,0.62-3.163,1.088-4.723,1.652c-1.573,0.474-2.707,1.387-4.486,1.654    C59.61,46.065,59.083,45.079,59.508,43.578z M55.729,42.397c-0.045,0.269-0.236,0.132-0.235,0    C55.538,42.129,55.73,42.267,55.729,42.397z M25.503,63.651c0.457-0.803,0.78-1.739,1.417-2.361    c0.366-0.343,1.102-0.316,1.416-0.709c0.414-0.216,1.178-0.081,1.417-0.473c3.19-0.095,6.384-0.484,8.265,1.182    c-0.93,0.953-1.883,1.901-2.834,2.833c-1.857,1.821-3.779,3.635-5.667,5.667c-0.866,0.933-1.689,1.942-2.597,2.834    c-0.804-0.062-0.668-1.063-1.181-1.416c0.046-0.913,0.009-1.74-0.236-2.362V63.651z M19.6,73.332v-0.709    c2.954-0.277,3.761,1.591,4.959,3.07c-0.499,0.84-0.916,1.76-1.653,2.361C20.564,77.721,20.439,75.169,19.6,73.332z     M113.348,67.193c-0.576-0.999-0.487-2.662-1.889-2.834c-1.065,0.352-0.913,1.921-1.181,3.07c-0.41,0.928-0.713,1.963-1.181,2.833    c-1.235,0.496-2.396,1.068-4.015,1.182c0.032-2.824,1.626-7.348-2.125-7.321c-1.221,0.352-0.407,1.685-0.473,2.834    c-0.538,1.902-0.718,4.162-1.417,5.903c-1.714,0.255-2.968,0.968-4.723,1.181c0.673-2.003,1.167-4.186,1.652-6.376    c-0.054-2.622,0.563-5.915-2.124-5.904c-1.646-0.071-0.886,2.265-1.417,3.307c0.073,0.86-0.038,1.537-0.236,2.126    c-0.092,0.616-0.121,1.295-0.472,1.652c-0.391,2.601-1.458,4.524-2.361,6.612c-1.009,0.566-2.359,0.789-3.779,0.945    c1.315-2.857,2.098-6.247,2.834-9.683c0.001-2.521,0.393-5.431-1.889-5.667c-2.25,0.111-2.294,2.429-2.361,4.723    c-0.74,4.377-2.205,8.028-3.543,11.807c-1.08,0.573-2.486,0.82-3.778,1.181c0.059-1.357,0.994-1.839,1.181-3.069    c0.562-0.777,0.604-2.073,1.181-2.834c0.143-1.963,2.328-4.811,0.236-6.14h-1.182c-1.265,0.31-1.068,2.08-1.652,3.069    c-0.431,1.064-0.448,2.544-1.181,3.307c-0.537,2.533-1.977,4.163-2.361,6.848c-1.09-0.145-1.359,0.531-2.361,0.473    c0.392-1.104,0.765-2.226,1.18-3.305c0.145-0.601,0.401-1.447,0.237-2.126c-0.175-0.719-0.496-0.82-0.945-1.181    c-1.683,0.363-1.979,2.114-2.361,3.778c-0.859,1.108-1.037,2.898-1.89,4.015c-3.145,0.948-6.162,2.023-9.445,2.833    c-1.312,0.735-3.226,0.869-4.487,1.654c-0.898,0.125-1.691,0.354-2.361,0.708c-0.723-0.171-0.695,0.407-1.417,0.236    c0.169,0.641-1.113-0.169-0.944,0.472c-3.256,0.837-6.183,2.004-9.445,2.834c-3.025,0.989-6.267,1.762-8.973,3.069    c-0.967,0.451-1.589,1.244-2.126,2.126c-0.738,0.363-1.701,0.503-2.361,0.944c-0.806,0.296-1.696,0.507-2.361,0.944    c-2.646,0.029-4.792,0.562-7.557,0.473c0.253-0.533,0.242-1.081,0.472-1.653c0.058-0.143,0.423-0.356,0.472-0.472    c0.056-0.131-0.034-0.334,0-0.473c0.205-0.816,1.127-1.889,1.653-2.834c0.167-0.301,0.047-0.648,0.236-0.944    c0.118-0.186,0.338-0.231,0.472-0.472c0.338-0.605,0.508-1.188,0.945-1.89c0.237-0.381,0.702-1.118,1.181-1.653    c0.832-1.766,1.863-3.331,3.07-4.723c0.759-1.839,2.183-3.013,3.07-4.723c2.363-2.832,4.699-5.692,7.32-8.266    c2.739-2.455,5.362-5.027,8.501-7.083c1.418-1.259,3.086-2.267,4.723-3.307c1.564-1.034,3.187-2.009,4.959-2.833    c3.153-2.043,6.899-3.492,10.627-4.959c7.664-2.727,15.88-4.9,25.74-5.433c2.553-0.517,6.036-0.103,8.973-0.235    c1.847,0.672,3.15,1.888,4.723,2.834c1.407,1.111,2.953,2.084,4.015,3.542c2.771,2.266,4.718,5.358,5.903,9.21    c-0.083,0.939-0.514,1.532-0.708,2.36C113.817,65.143,113.968,66.553,113.348,67.193z M94.693,51.371    c-3.361-1.787-4.812,4.705-2.125,5.432c2.445,0.004,2.221-2.66,2.598-4.725C94.869,51.983,94.682,51.775,94.693,51.371z     M70.134,55.385c-2.132,0.219-3.894,5.349-1.417,6.141c1.235-0.024,1.744-0.775,1.889-1.89c0.458-0.88,1.005-1.671,0.944-3.069    C71.159,56.092,70.917,55.468,70.134,55.385z M52.424,72.388c0.411-0.019,0.735,0.053,0.944,0.235    c0.064-0.486,1.046-0.056,0.944-0.708c0.653,0.101,0.223-0.88,0.709-0.944v-1.89c-0.327-0.382-0.669-0.747-0.944-1.181    C51.308,67.213,51.223,71.237,52.424,72.388z M63.522,71.915c0.143,1.981,1.096,3.154,3.306,3.069    c0.598-0.424,1.115-0.931,0.944-2.125C67.495,71.261,64.629,70.617,63.522,71.915z M40.38,78.527    c-1.115-0.378-2.179-0.204-3.07,0.236c-0.033,0.44-0.156,0.79-0.472,0.944c0.187,0.915,0.519,1.686,1.181,2.126    c0.667,0.435,0.983,1.22,2.125,1.181c0.95-0.074,1.482-0.564,1.889-1.181C42.352,79.862,40.99,79.571,40.38,78.527z     M49.826,82.778c-0.196,1.85,0.513,2.793,1.889,3.07c1.02-0.24,1.846-0.673,1.889-1.89C53.439,82.061,51.106,81.698,49.826,82.778    z M27.156,88.917c0.449,1.175,2.23,1.841,3.779,1.181C32.549,87.518,26.839,85.381,27.156,88.917z" fill="#FFFFFF"/>
	</g>
</g>
<g>
</g>
<g>
</g>
<g>
</g>
<g>
</g>
<g>
</g>
<g>
</g>
<g>
</g>
<g>
</g>
<g>
</g>
<g>
</g>
<g>
</g>
<g>
</g>
<g>
</g>
<g>
</g>
<g>
</g>
</svg>
