<?xml version="1.0" encoding="iso-8859-1"?>
<!-- Generator: Adobe Illustrator 18.0.0, SVG Export Plug-In . SVG Version: 6.00 Build 0)  -->
<!DOCTYPE svg PUBLIC "-//W3C//DTD SVG 1.1//EN" "http://www.w3.org/Graphics/SVG/1.1/DTD/svg11.dtd">
<svg xmlns="http://www.w3.org/2000/svg" xmlns:xlink="http://www.w3.org/1999/xlink" version="1.1" id="Capa_1" x="0px" y="0px" viewBox="0 0 415.863 415.863" style="enable-background:new 0 0 415.863 415.863;" xml:space="preserve" width="512px" height="512px">
<g>
	<path d="M397.121,328.924v-24.293c8.827-6.307,14.598-16.629,14.598-28.28s-5.771-21.974-14.598-28.281v-26.052v-27.587   c9.684-3.828,16.557-13.276,16.557-24.306C413.677,76.318,337.359,0,243.552,0h-71.24C78.504,0,2.186,76.318,2.186,170.126   c0,11.029,6.872,20.478,16.557,24.306v27.587v26.052C9.915,254.377,4.145,264.7,4.145,276.351s5.771,21.974,14.598,28.28v24.293   c-9.921,6.067-16.557,17.001-16.557,29.457c0,31.696,25.786,57.482,57.482,57.482h296.528c31.696,0,57.482-25.786,57.482-57.482   C413.677,345.925,407.042,334.991,397.121,328.924z M234.277,215.019v-18.762h74v18.762H234.277z M32.742,215.019v-18.762h187.535   v18.762H32.742z M322.277,196.256h60.844v18.762h-60.844V196.256z M172.312,14h71.24c86.088,0,156.126,70.038,156.126,156.126   c0,6.688-5.442,12.13-12.13,12.13h-72.27h-88H28.316c-6.688,0-12.13-5.442-12.13-12.13C16.186,84.038,86.223,14,172.312,14z    M32.742,241.8v-12.781h194.535h88h67.844V241.8h-221.53c-1.856,0-3.637,0.737-4.95,2.05l-27.352,27.353l-27.353-27.353   c-1.313-1.313-3.093-2.05-4.95-2.05H32.742z M36.203,255.8h57.884l30.252,30.252c1.313,1.313,3.093,2.05,4.95,2.05   s3.637-0.737,4.95-2.05L164.49,255.8h215.17c10.171,1.324,18.058,10.025,18.058,20.551c0,11.439-9.306,20.745-20.745,20.745H38.89   c-11.439,0-20.745-9.306-20.745-20.745C18.145,265.825,26.032,257.124,36.203,255.8z M32.742,323.878v-12.782h350.378v12.782   h-64.245c-1.856,0-3.637,0.737-4.95,2.05l-27.353,27.352l-27.352-27.352c-1.313-1.313-3.093-2.05-4.95-2.05H32.742z    M356.196,401.863H59.668c-23.976,0-43.482-19.506-43.482-43.482c0-11.306,9.198-20.503,20.503-20.503h214.684l30.251,30.251   c1.367,1.367,3.158,2.05,4.95,2.05c1.791,0,3.583-0.684,4.95-2.05l30.252-30.251h57.398c11.306,0,20.503,9.198,20.503,20.503   C399.677,382.357,380.172,401.863,356.196,401.863z" fill="#FFFFFF"/>
	<path d="M79.556,107c1.792,0,3.583-0.684,4.95-2.05l15-15c2.734-2.733,2.734-7.166,0-9.899c-2.733-2.733-7.166-2.733-9.899,0   l-15,15c-2.734,2.733-2.734,7.166,0,9.899C75.973,106.316,77.765,107,79.556,107z" fill="#FFFFFF"/>
	<path d="M160.14,107c1.792,0,3.583-0.684,4.95-2.05l15-15c2.734-2.733,2.734-7.166,0-9.899c-2.733-2.733-7.166-2.733-9.899,0   l-15,15c-2.734,2.733-2.734,7.166,0,9.899C156.557,106.316,158.348,107,160.14,107z" fill="#FFFFFF"/>
	<path d="M240.723,107c1.792,0,3.583-0.684,4.95-2.05l15-15c2.734-2.733,2.734-7.166,0-9.899c-2.733-2.733-7.166-2.733-9.899,0   l-15,15c-2.734,2.733-2.734,7.166,0,9.899C237.14,106.316,238.932,107,240.723,107z" fill="#FFFFFF"/>
	<path d="M321.306,107c1.792,0,3.583-0.684,4.95-2.05l15-15c2.734-2.733,2.734-7.166,0-9.899c-2.733-2.733-7.166-2.733-9.899,0   l-15,15c-2.734,2.733-2.734,7.166,0,9.899C317.723,106.316,319.515,107,321.306,107z" fill="#FFFFFF"/>
	<path d="M291.065,60.503c1.367,1.367,3.158,2.05,4.95,2.05s3.583-0.684,4.95-2.05c2.734-2.733,2.734-7.166,0-9.899l-15-15   c-2.733-2.733-7.166-2.733-9.899,0c-2.734,2.733-2.734,7.166,0,9.899L291.065,60.503z" fill="#FFFFFF"/>
	<path d="M210.482,60.503c1.367,1.367,3.158,2.05,4.95,2.05s3.583-0.684,4.95-2.05c2.734-2.733,2.734-7.166,0-9.899l-15-15   c-2.733-2.733-7.166-2.733-9.899,0c-2.734,2.733-2.734,7.166,0,9.899L210.482,60.503z" fill="#FFFFFF"/>
	<path d="M129.899,60.503c1.367,1.367,3.158,2.05,4.95,2.05s3.583-0.684,4.95-2.05c2.734-2.733,2.734-7.166,0-9.899l-15-15   c-2.733-2.733-7.166-2.733-9.899,0c-2.734,2.733-2.734,7.166,0,9.899L129.899,60.503z" fill="#FFFFFF"/>
</g>
<g>
</g>
<g>
</g>
<g>
</g>
<g>
</g>
<g>
</g>
<g>
</g>
<g>
</g>
<g>
</g>
<g>
</g>
<g>
</g>
<g>
</g>
<g>
</g>
<g>
</g>
<g>
</g>
<g>
</g>
</svg>
