<?xml version="1.0" encoding="iso-8859-1"?>
<!-- Generator: Adobe Illustrator 18.0.0, SVG Export Plug-In . SVG Version: 6.00 Build 0)  -->
<!DOCTYPE svg PUBLIC "-//W3C//DTD SVG 1.1//EN" "http://www.w3.org/Graphics/SVG/1.1/DTD/svg11.dtd">
<svg xmlns="http://www.w3.org/2000/svg" xmlns:xlink="http://www.w3.org/1999/xlink" version="1.1" id="Capa_1" x="0px"
     y="0px" viewBox="0 0 442.832 442.832" style="enable-background:new 0 0 442.832 442.832;" xml:space="preserve"
     width="512px" height="512px">
<path d="M359.83,146.074c-1.328-1.49-3.229-2.342-5.226-2.342h-4.236V43.357c0-2.412-1.241-4.653-3.285-5.933  s-4.603-1.418-6.772-0.364l-40.649,19.736c-2.411,1.171-3.942,3.616-3.942,6.297v36.325l-26.66-10.885V23.669  c0-2.41-1.24-4.651-3.282-5.931c-2.042-1.281-4.599-1.419-6.769-0.369l-30.614,14.822v-7.626c0-2.792-1.66-5.318-4.224-6.426  L183.523,0.574c-2.163-0.935-4.651-0.718-6.622,0.576c-1.969,1.294-3.155,3.493-3.155,5.85v74.051l-26.659,14.063V35.065  c0-2.304-1.134-4.461-3.032-5.767c-1.899-1.306-4.318-1.595-6.47-0.771L96.924,44.09c-2.708,1.037-4.498,3.637-4.498,6.538v93.104  h-4.199c-1.996,0-3.897,0.852-5.225,2.342c-1.329,1.49-1.958,3.476-1.729,5.459l32.841,285.099c0.223,1.938,1.246,3.695,2.82,4.848  c1.575,1.152,3.56,1.596,5.474,1.222c65.696-12.807,132.319-12.807,198.016,0c0.444,0.087,0.893,0.129,1.339,0.129  c1.475,0,2.926-0.466,4.134-1.351c1.575-1.152,2.597-2.91,2.82-4.848l32.842-285.099  C361.787,149.551,361.158,147.564,359.83,146.074z M309.719,67.476l26.649-12.939v89.195h-7.566c-3.667,0-6.712,2.83-6.981,6.486  l-0.971,13.187c-1.015,13.785-4.85,27.007-11.131,38.979V67.476z M295.719,114.54v108.023c-2.037,2.273-4.182,4.465-6.44,6.563  c-6.169,5.732-12.971,10.583-20.22,14.533V103.655L295.719,114.54z M255.058,34.836l-0.001,215.101  c-2.251,0.806-4.528,1.538-6.834,2.18v-82.24c0-2.854-1.732-5.422-4.379-6.491l-15.451-6.239V47.745L255.058,34.836z M234.223,174.6  v80.346c-4.222,0.543-8.496,0.84-12.808,0.84c-4.662,0-9.284-0.327-13.839-0.962V163.84L234.223,174.6z M214.393,29.166v14.132  c0,0.021-0.004,0.041-0.004,0.062v108.134l-11.191-4.519c-2.158-0.871-4.608-0.614-6.536,0.688  c-1.929,1.301-3.085,3.476-3.085,5.803v98.374c-1.966-0.57-3.905-1.221-5.829-1.911l-0.001-232.276L214.393,29.166z M173.746,96.88  v146.766c-7.239-3.947-14.032-8.794-20.193-14.519c-2.267-2.106-4.421-4.307-6.466-6.59V110.942L173.746,96.88z M106.427,55.444  l26.661-10.205v157.094c-6.265-11.959-10.092-25.163-11.105-38.929l-0.971-13.187c-0.269-3.657-3.314-6.486-6.981-6.486h-7.603  V55.444z M315.669,427.566c-31.294-5.647-62.771-8.47-94.253-8.47s-62.96,2.823-94.253,8.47L122.259,385h198.313L315.669,427.566z   M322.185,371H120.646l-8.755-76h219.048L322.185,371z M332.552,281H110.279L96.08,157.732h11.446l0.494,6.701  c2.115,28.727,14.901,55.345,36.004,74.95c21.103,19.606,48.587,30.403,77.392,30.403s56.289-10.797,77.392-30.403  c21.103-19.605,33.89-46.223,36.005-74.95l0.493-6.701h11.446L332.552,281z"
      fill="#FFFFFF"/>
    <g>
</g>
    <g>
</g>
    <g>
</g>
    <g>
</g>
    <g>
</g>
    <g>
</g>
    <g>
</g>
    <g>
</g>
    <g>
</g>
    <g>
</g>
    <g>
</g>
    <g>
</g>
    <g>
</g>
    <g>
</g>
    <g>
</g>
</svg>
